<svg width="43" height="64" viewBox="0 0 43 64" fill="none" xmlns="http://www.w3.org/2000/svg">
<path d="M16.5025 38.6564C16.1965 39.65 16.2985 40.8423 16.5025 42.2333C17.0124 44.8167 18.2363 48.1949 18.9502 51.8712H24.1517C24.8657 48.2942 26.0896 44.916 26.7015 42.2333C27.0075 40.8423 27.0075 39.5506 26.7015 38.6564C26.3955 37.7622 25.7836 37.0667 24.6617 36.3712H18.5423C17.3184 37.0667 16.7065 37.7622 16.5025 38.6564Z" fill="#149080"/>
<path d="M28.5373 58.5282H14.4627C13.1368 58.5282 12.1169 59.5218 12.1169 60.7141V62.9H14.4627H28.5373H30.883V60.7141C30.883 59.5218 29.8632 58.5282 28.5373 58.5282Z" fill="#149080"/>
<path d="M35.7786 3.1859H23.8458C23.8458 1.99359 22.8259 1 21.5 1C20.1741 1 19.1542 1.99359 19.1542 3.1859H7.22138L1 28.5224C1.81592 28.0256 2.63185 27.5288 3.65175 27.5288C5.07961 27.5288 5.89552 28.3237 6.60945 28.9199C7.32338 29.516 7.83333 29.7147 8.03731 29.7147C8.34328 29.7147 8.85323 29.4167 9.56716 28.9199C10.2811 28.4231 11.199 27.5288 12.5249 27.5288C13.8507 27.5288 14.7687 28.3237 15.4826 28.9199C16.1965 29.4167 16.7065 29.7147 17.0124 29.7147C17.1144 29.7147 17.3184 29.6154 17.6244 29.516C17.8283 29.4167 18.1343 29.1186 18.5423 28.9199C19.0522 28.5224 19.6642 27.9263 20.5821 27.7276C20.8881 27.6282 21.194 27.6282 21.5 27.6282C22.8259 27.6282 23.7438 28.4231 24.4577 29.0192C25.1716 29.516 25.6816 29.8141 25.9876 29.8141C26.2935 29.8141 26.8035 29.516 27.4154 29.0192C28.1293 28.4231 29.0472 27.6282 30.3731 27.6282C31.801 27.6282 32.6169 28.4231 33.3308 29.0192C33.6368 29.3173 33.9428 29.516 34.2487 29.6154C34.4527 29.7147 34.6567 29.8141 34.8607 29.8141C35.1667 29.8141 35.6766 29.516 36.2885 28.9199C37.0025 28.3237 37.9204 27.5288 39.2463 27.5288C40.2662 27.5288 41.0821 28.0256 41.898 28.5224L35.7786 3.1859Z" fill="#149080"/>
<path d="M24.9677 54.0571H17.9304C17.2164 54.0571 16.8085 54.5539 16.8085 55.15C16.8085 55.7462 17.3184 56.243 17.9304 56.243H24.9677C25.6816 56.243 26.0896 55.7462 26.0896 55.15C26.1915 54.5539 25.6816 54.0571 24.9677 54.0571Z" fill="#149080"/>
<path d="M21.5 29.7141C21.398 29.7141 21.194 29.8135 20.8881 29.9128C20.6841 30.0122 20.4801 30.2109 20.2761 30.3103V33.9865H22.6219V30.4096C22.1119 30.0122 21.704 29.7141 21.5 29.7141Z" fill="#149080"/>
</svg>
