<svg width="103" height="36" viewBox="0 0 103 36" fill="none" xmlns="http://www.w3.org/2000/svg">
  <g fill="currentColor">
    <path d="M20.2204 22.3813C20.1204 19.6962 19.7204 17.1105 19.7204 14.4255C19.7204 12.2376 20.1204 10.0498 19.3204 7.96135C19.3204 7.76246 19.4204 7.46411 19.4204 7.26522C19.6204 6.27074 16.1204 6.76798 15.6204 7.76246C15.3204 8.0608 15.1204 8.35914 15.2204 8.75694C15.2204 8.85638 15.3204 8.95583 15.3204 9.05528C14.6204 12.2376 13.7204 15.3205 12.7204 18.4034C12.3204 19.5967 11.8204 20.6907 11.4204 21.884C10.8204 20.7901 10.2204 19.6962 9.82041 18.5028C8.42041 15.1216 7.22041 11.6409 5.52041 8.35914C5.72041 6.86743 2.32041 6.96688 1.62041 8.35914C0.820408 10.0498 0.920408 11.7404 1.22041 13.5304C1.52041 15.5194 1.62041 17.5083 1.62041 19.5967C1.62041 23.5746 2.02041 27.4531 2.02041 31.431C1.62041 31.8288 1.52041 32.326 1.92041 32.8233C2.12041 33.0222 2.32041 33.2211 2.52041 33.3205C3.52041 34.0167 6.12041 33.42 6.12041 32.0277C6.12041 27.9503 5.82041 23.873 5.72041 19.6962C5.72041 19.2984 5.72041 18.9006 5.72041 18.5028C5.82041 18.6023 5.82041 18.8012 5.92041 18.9006C6.52041 20.4918 7.22041 22.0829 8.12041 23.5746C9.02041 25.0664 9.42041 26.6575 9.92041 28.2487C9.72041 28.4476 9.62041 28.7459 9.72041 28.9448C9.72041 29.1437 9.82041 29.2432 10.0204 29.3426C10.6204 29.8399 11.8204 29.641 12.5204 29.3426C12.8204 29.2432 13.1204 29.0443 13.3204 28.9448C13.6204 28.7459 14.2204 28.2487 14.0204 27.7515C14.0204 27.652 13.9204 27.5526 13.9204 27.4531C14.4204 26.1603 14.6204 24.8675 14.9204 23.5746C15.2204 22.1824 15.7204 20.7901 16.2204 19.4973C16.3204 20.094 16.3204 20.6907 16.4204 21.3868C16.6204 23.9724 16.4204 26.4586 16.4204 28.9448C16.4204 29.7404 16.5204 30.536 16.6204 31.431C16.7204 31.7294 17.0204 33.2211 16.9204 33.3205C16.1204 33.8178 16.3204 34.4144 17.1204 34.6133C18.0204 34.8122 19.2204 34.5139 19.9204 33.9172C21.1204 32.8233 20.5204 31.1327 20.3204 29.7404C19.8204 27.3537 20.3204 24.768 20.2204 22.3813Z"/>
    <path d="M28.6201 23.0776C28.5201 21.0887 27.8201 19.1992 27.8201 17.2102C27.8201 14.9229 28.0201 12.6356 27.6201 10.3483C27.5201 9.65219 23.5201 10.4478 23.7201 11.3428C24.0201 13.4312 23.9201 15.5196 23.9201 17.7075C23.9201 19.6964 24.4201 21.5859 24.6201 23.5749C24.9201 25.6633 24.5201 27.7517 24.7201 29.7406C24.8201 30.7351 25.5201 32.4257 24.8201 33.3208C24.4201 33.818 26.3201 33.6191 26.4201 33.6191C27.2201 33.5196 28.2201 33.2213 28.7201 32.6246C29.4201 31.829 28.9201 30.2379 28.8201 29.2434C28.5201 27.2544 28.7201 25.0666 28.6201 23.0776Z"/>
    <path d="M44.9205 19.7956C42.8205 17.0111 39.0205 19.0001 36.3205 18.3039C34.9205 17.9061 34.9205 16.0166 34.9205 14.9227C34.9205 13.5304 34.8205 12.2376 34.6205 10.8453C34.5205 9.75142 34.6205 8.75694 35.3205 7.96136C35.4205 7.86191 36.2205 7.66302 36.1205 7.66302C36.5205 7.56357 36.8205 7.56357 37.2205 7.56357C38.7205 7.46412 41.8205 7.76247 41.2205 10.0498C40.9205 11.0442 44.8205 10.4476 45.1205 9.45308C46.3205 4.87848 37.8205 5.77351 35.4205 6.3702C33.2205 6.96688 30.8205 8.16026 30.6205 10.7459C30.5205 11.9393 30.9205 13.1326 30.9205 14.326C31.0205 15.7183 30.7205 17.1106 31.2205 18.4034C32.3205 21.3868 36.7205 19.9945 39.0205 20.094C42.8205 20.3923 41.7205 25.5636 41.7205 27.9504C41.7205 29.2432 42.9205 31.3316 41.9205 32.4255C41.3205 33.1216 39.9205 33.1216 39.1205 33.2211C38.3205 33.3205 36.9205 33.5194 36.4205 32.7238C35.4205 31.3316 36.5205 28.9448 36.3205 27.3537C36.2205 26.4586 32.2205 27.2542 32.4205 28.3481C32.7205 30.9338 31.0205 34.4145 34.8205 34.9117C37.2205 35.21 40.0205 34.7128 42.3205 34.0167C43.5205 33.6189 44.6205 33.1216 45.5205 32.2266C46.5205 31.3316 46.2205 29.9393 45.9205 28.7459C45.4205 25.6631 46.8205 22.2818 44.9205 19.7956Z"/>
    <path d="M62.3201 19.5966C62.2201 15.8176 61.6201 12.1381 61.6201 8.35905C61.6201 6.37009 57.6201 7.06623 57.6201 8.65739C57.6201 12.2375 58.1201 15.8176 58.3201 19.3977C58.3201 19.4972 58.3201 19.4972 58.3201 19.5966C56.4201 19.5966 54.4201 19.7955 52.4201 19.7955C52.6201 15.2209 51.8201 10.6463 52.0201 5.9723C52.0201 5.37561 48.1201 5.87285 48.1201 6.96678C47.9201 11.4419 48.7201 15.8176 48.6201 20.2928C48.5201 22.3812 48.4201 24.569 48.3201 26.6574C48.3201 27.7514 48.5201 28.8453 48.6201 29.9392C48.7201 30.9337 49.1201 32.2265 48.8201 33.221C48.6201 34.0166 52.4201 33.5193 52.7201 32.5248C53.2201 30.7348 52.5201 28.5469 52.3201 26.7569C52.1201 25.0663 52.3201 23.2762 52.4201 21.5856C54.4201 21.4861 56.5201 21.2873 58.5201 21.5856C58.6201 22.9779 58.7201 24.3701 58.8201 25.663C58.9201 26.8563 59.0201 27.9502 59.0201 29.1436C59.0201 30.1381 59.1201 31.6298 58.8201 32.6243C58.0201 34.7127 61.9201 34.5138 62.5201 33.0221C63.2201 31.1326 63.0201 28.8453 62.9201 26.8563C62.7201 24.3701 62.3201 21.9834 62.3201 19.5966Z"/>
    <path d="M79.22 23.9729C78.32 21.1884 76.82 18.8016 75.62 16.216C76.62 14.3265 77.62 12.3375 78.52 10.3485C79.32 8.55849 79.92 6.56954 81.62 5.27672C82.22 4.87892 82.22 4.38169 81.32 4.28224C80.42 4.18279 79.22 4.48113 78.52 4.97837C77.12 6.27119 76.12 7.66346 75.42 9.35407C74.52 11.4425 73.52 13.4314 72.52 15.4204C72.42 15.5198 72.42 15.7187 72.32 15.8182C71.82 16.1165 71.52 16.6138 71.72 17.111C70.92 18.7022 70.12 20.1939 69.22 21.6856C68.92 16.216 68.22 10.6469 68.02 5.17727C68.02 3.88445 64.02 4.68003 64.12 6.17174C64.32 13.0336 65.32 19.7961 65.42 26.658C65.42 26.658 65.42 26.658 65.42 26.7574C65.12 27.0558 65.22 27.2547 65.52 27.3541C65.52 29.1442 65.42 30.8348 65.32 32.6248C64.82 33.321 65.82 33.7188 66.42 33.7188H66.52C67.22 33.7188 69.12 33.4204 69.22 32.3265C69.42 30.2381 69.52 28.1497 69.42 26.0613C71.02 24.3707 72.32 22.4812 73.52 20.4922C74.32 21.9839 75.02 23.4756 75.52 25.0668C76.42 27.7519 77.82 30.3375 78.62 33.0226C79.12 34.8127 83.12 33.7188 82.52 32.0282C81.52 29.2436 80.12 26.7574 79.22 23.9729Z"/>
    <path d="M102.721 19.3983C102.521 18.6027 101.321 18.6027 100.421 18.6027C100.421 18.3043 100.421 17.9066 100.421 17.6082C100.321 14.9231 100.221 12.238 100.021 9.6524C99.8207 7.1662 98.4207 6.37062 96.0207 6.47007C93.6207 6.56952 90.8207 6.96731 88.5207 7.86234C85.9207 8.85682 84.4207 10.7463 83.9207 13.5309C83.4207 16.5143 84.1207 19.6966 84.3207 22.68C84.5207 26.1607 84.4207 29.6414 84.4207 33.1221C84.4207 33.7187 88.3207 33.1221 88.3207 32.1276C88.3207 29.343 88.3207 26.5585 88.3207 23.8734C88.3207 23.0778 88.2207 22.2823 88.2207 21.4867C89.6207 20.89 91.9207 21.4867 93.3207 21.5861C94.4207 21.6856 95.5207 21.3872 96.5207 21.2878C96.5207 23.5751 96.6207 25.8624 96.7207 28.1497C96.7207 29.343 97.2207 31.6303 96.3207 32.6248C95.9207 33.1221 97.8207 32.9232 97.9207 32.9232C98.7207 32.8237 99.7207 32.5254 100.221 31.9287C101.121 30.8348 100.721 28.1497 100.621 26.8569C100.521 24.9673 100.521 23.0778 100.521 21.1883C101.621 20.9894 102.921 20.2933 102.721 19.3983ZM88.1207 19.2988C88.0207 18.1055 87.9207 16.8126 87.8207 15.6193C87.6207 13.332 87.9207 10.0502 90.1207 8.65792C90.7207 8.26013 91.8207 8.35958 92.5207 8.26013C93.5207 8.06123 94.5207 7.86234 95.3207 8.45902C96.5207 9.25461 96.2207 12.1386 96.2207 13.332C96.2207 15.3209 96.4207 17.3099 96.5207 19.2988C95.9207 19.3983 95.4207 19.3983 94.8207 19.3983C92.5207 19.1994 90.2207 18.8016 88.1207 19.2988Z"/>
    <path d="M25.2204 7.663C25.7204 7.56355 26.2204 7.4641 26.7204 7.16576C26.8204 7.06631 26.9204 6.96686 26.9204 6.96686C27.4204 6.66852 27.9204 6.17128 27.6204 5.5746C27.1204 4.48067 27.2204 3.38675 27.2204 2.19337C27.2204 1.1989 26.2204 1 25.4204 1C24.7204 1.09945 23.2204 1.59669 23.2204 2.49172C23.2204 3.48619 23.1204 4.48067 23.3204 5.47515C23.3204 5.5746 23.2204 5.67404 23.2204 5.87294C23.1204 6.07183 23.2204 6.27073 23.3204 6.46962V6.56907C23.3204 6.66852 23.3204 6.76797 23.3204 6.86742C23.4204 7.06631 23.5204 7.26521 23.7204 7.36465C24.3204 7.663 24.8204 7.663 25.2204 7.663Z"/>
  </g>
</svg>
