<svg width="115" height="48" viewBox="0 0 115 48" fill="none" xmlns="http://www.w3.org/2000/svg">
<path d="M111.889 42.8087C116.312 43.7068 112.693 6.98661 111.989 4.59182C109.979 -1.99387 85.1469 2.49637 79.6176 2.8955C66.8498 3.89333 54.283 1.89767 41.8169 2.49637C35.5838 2.79572 6.73056 0.700276 4.11668 4.49203C-0.910007 11.6764 1.40227 30.2361 2.80974 39.5159C-1.21161 40.3142 5.12202 43.7068 5.92629 44.4053C12.2599 46.6005 22.4138 44.2057 29.0491 44.8044C44.5313 46.3011 61.0188 42.6092 76.6015 43.8066C81.1256 44.9042 86.2528 44.8044 90.8773 45.004C94.396 50.5918 110.682 42.6092 111.889 42.8087C112.392 42.9085 111.788 42.8087 111.889 42.8087Z" fill="black"/>
<path d="M27.2395 25.3475C27.139 22.853 26.7368 20.2586 26.7368 17.764C26.7368 15.6686 27.139 13.5731 26.4352 11.5775C26.4352 11.3779 26.5358 11.1783 26.5358 10.879C26.7368 9.88117 23.4192 10.3801 22.9165 11.2781C22.6149 11.5775 22.4139 11.8768 22.5144 12.1762C22.5144 12.276 22.6149 12.3757 22.6149 12.3757C22.0117 15.3692 21.1069 18.3627 20.1016 21.2564C19.6995 22.3541 19.2973 23.4517 18.8952 24.6491C18.292 23.6512 17.7893 22.5536 17.2866 21.456C15.9797 18.1632 14.7733 14.8703 13.1648 11.777C13.3658 10.2803 10.1487 10.4799 9.44501 11.777C8.64074 13.3736 8.74127 14.9701 9.04287 16.6664C9.34448 18.5623 9.34447 20.4582 9.44501 22.4538C9.44501 26.2456 9.74661 29.9376 9.84714 33.7293C9.54554 34.1285 9.44501 34.5276 9.74661 35.0265C9.94768 35.2261 10.0482 35.4256 10.2493 35.5254C11.1541 36.2239 13.5669 35.6252 13.5669 34.328C13.5669 30.4365 13.2653 26.5449 13.1648 22.6534C13.1648 22.2543 13.1648 21.8551 13.1648 21.5558C13.2653 21.6556 13.2653 21.8551 13.3658 21.9549C13.969 23.4517 14.5722 24.9484 15.477 26.3454C16.2813 27.7423 16.6834 29.2391 17.1861 30.7358C16.985 30.9354 16.8845 31.135 16.985 31.4343C16.985 31.6339 17.0856 31.7337 17.1861 31.7337C17.7893 32.2326 18.8952 32.033 19.5989 31.7337C19.9005 31.6339 20.1016 31.5341 20.4032 31.3345C20.7048 31.135 21.2075 30.7358 21.1069 30.2369C21.1069 30.1371 21.0064 30.0373 21.0064 29.9376C21.4085 28.7402 21.7101 27.443 21.9112 26.2456C22.2128 24.8486 22.6149 23.6512 23.1176 22.3541C23.1176 22.9528 23.2181 23.5514 23.2181 24.1501C23.4192 26.5449 23.2181 28.9397 23.2181 31.3345C23.2181 32.1328 23.3187 32.8313 23.4192 33.6295C23.5197 33.9289 23.7208 35.3259 23.7208 35.4256C23.1176 35.9246 23.3187 36.623 24.1229 36.8226C25.0277 37.0222 26.1336 36.7228 26.7368 36.1241C27.8427 35.1263 27.34 33.43 27.0384 32.1328C26.7368 30.1371 27.34 27.6426 27.2395 25.3475Z" fill="white"/>
<path d="M35.1817 26.046C35.0811 24.1501 34.4779 22.3541 34.4779 20.4582C34.4779 18.2629 34.679 16.0677 34.3774 13.9723C34.2769 13.2738 30.5571 14.0721 30.6576 14.9701C30.9592 16.9658 30.8587 18.9614 30.8587 20.9571C30.8587 22.853 31.2608 24.6491 31.5624 26.5449C31.864 28.5406 31.4619 30.4365 31.663 32.4321C31.7635 33.3302 32.3667 35.0265 31.7635 35.8248C31.3614 36.3237 33.171 36.1241 33.2715 36.1241C33.9753 36.0243 34.9806 35.725 35.4833 35.1263C36.0865 34.328 35.6843 32.8313 35.5838 31.9332C35.0811 30.0373 35.2822 27.9419 35.1817 26.046Z" fill="white"/>
<path d="M50.7644 22.853C48.7537 20.2586 45.1345 22.1545 42.6212 21.3562C41.3142 20.9571 41.3142 19.161 41.3142 18.1632C41.3142 16.7662 41.2137 15.5688 41.0126 14.2716C40.9121 13.2738 41.0126 12.276 41.7164 11.4777C41.8169 11.3779 42.5206 11.1783 42.5206 11.1783C42.8222 11.0786 43.1238 11.0786 43.526 11.0786C45.034 10.9788 47.9494 11.2781 47.3462 13.4734C47.0446 14.4712 50.7644 13.8725 51.066 12.8747C52.2724 8.4842 44.1292 9.38225 41.8169 9.98095C39.7057 10.5796 37.3934 11.777 37.2929 14.1718C37.1923 15.3692 37.5945 16.4669 37.5945 17.5645C37.695 18.8616 37.3934 20.1588 37.8961 21.456C38.9014 24.2499 43.1238 22.9528 45.3356 23.1523C48.9548 23.4517 47.9495 28.341 47.9495 30.636C47.9495 31.8334 49.0553 33.9289 48.1505 34.9267C47.5473 35.5254 46.2404 35.6252 45.5366 35.6252C44.7324 35.725 43.4254 35.9246 42.9228 35.2261C42.018 33.9289 43.0233 31.6339 42.8222 30.1371C42.7217 29.2391 38.9014 30.0374 39.1025 31.135C39.4041 33.6295 37.7955 36.9224 41.4148 37.4213C43.727 37.7206 46.3409 37.2217 48.5527 36.5232C49.6585 36.1241 50.7644 35.6252 51.6692 34.8269C52.6745 33.9289 52.3729 32.6317 52.0713 31.4343C51.2671 28.4408 52.574 25.2478 50.7644 22.853Z" fill="white"/>
<path d="M67.3525 22.6534C67.252 19.0612 66.6488 15.5688 66.6488 11.9766C66.6488 10.0807 62.8285 10.7792 62.8285 12.276C62.8285 15.6686 63.3311 19.0612 63.4317 22.4538C63.4317 22.5536 63.4317 22.5536 63.4317 22.6534C61.6221 22.6534 59.7119 22.853 57.8018 22.853C58.0028 18.4625 57.1986 14.0721 57.3996 9.78138C57.3996 9.18268 53.6799 9.6816 53.6799 10.7792C53.4788 14.9701 54.2831 19.2608 54.082 23.4517C53.9815 25.4473 53.881 27.443 53.881 29.5384C53.881 30.5363 54.082 31.6339 54.1826 32.6317C54.2831 33.5298 54.6852 34.8269 54.3836 35.725C54.1826 36.4235 57.8018 36.0243 58.1034 35.0265C58.606 33.3302 57.9023 31.2347 57.7012 29.5384C57.5002 27.9419 57.7012 26.2456 57.8018 24.5493C59.7119 24.4495 61.7226 24.2499 63.6327 24.5493C63.7333 25.8465 63.8338 27.1436 63.9343 28.4408C64.0349 29.5384 64.1354 30.636 64.1354 31.7337C64.1354 32.7315 64.2359 34.1285 63.9343 35.0265C63.2306 37.0222 66.9503 36.8226 67.453 35.3259C68.1568 33.5298 67.9557 31.3345 67.8552 29.5384C67.7546 27.3432 67.3525 24.9484 67.3525 22.6534Z" fill="white"/>
<path d="M83.4379 26.9441C82.5331 24.3497 81.1256 22.0547 80.0198 19.5601C81.0251 17.6642 81.9299 15.8682 82.8347 13.9723C83.639 12.276 84.2422 10.3801 85.7502 9.18269C86.2529 8.78355 86.2529 8.38442 85.5491 8.28464C84.7448 8.18485 83.5384 8.4842 82.9352 8.98312C81.5278 10.0807 80.623 11.3779 79.9192 13.0742C79.0144 14.9701 78.1096 16.9658 77.1043 18.8616C77.0038 18.9614 77.0037 19.161 76.9032 19.2608C76.4005 19.5601 76.1995 19.9593 76.3 20.4582C75.4957 21.9549 74.792 23.4517 73.8872 24.8486C73.5856 19.5601 72.9824 14.3714 72.7813 9.0829C72.7813 7.88551 68.961 8.58399 69.0616 10.0807C69.2626 16.5666 70.268 23.0525 70.268 29.5384C69.9664 29.8378 70.0669 30.0374 70.3685 30.1371C70.3685 31.8334 70.268 33.43 70.1675 35.1263C69.7653 35.8248 70.5696 36.2239 71.1728 36.2239H71.2733C71.9771 36.2239 73.7867 35.9246 73.8872 34.9267C74.0883 32.9311 74.0883 30.9354 74.0883 28.9397C75.5963 27.3432 76.8027 25.5471 77.9086 23.6512C78.6123 25.0482 79.316 26.4452 79.8187 27.9419C80.623 30.5363 82.0304 32.9311 82.8347 35.5254C83.3374 37.2217 87.0571 36.2239 86.5545 34.5276C85.6497 31.9332 84.3427 29.5384 83.4379 26.9441Z" fill="white"/>
<path d="M105.857 22.5536C105.656 21.7554 104.55 21.7554 103.645 21.8551C103.645 21.5558 103.645 21.2564 103.645 20.8573C103.545 18.3627 103.444 15.7684 103.243 13.2738C103.042 10.9788 101.735 10.0807 99.4228 10.1805C97.1105 10.2803 94.3961 10.6794 92.2849 11.4777C89.7715 12.4755 88.364 14.2716 87.9619 16.866C87.4592 19.7597 88.163 22.7532 88.364 25.6469C88.4646 28.9397 88.4646 32.3324 88.4646 35.6252C88.4646 36.1241 92.1843 35.6252 92.1843 34.6274C92.1843 32.033 92.1843 29.3389 92.1843 26.7445C92.1843 25.9462 92.1843 25.2478 92.0838 24.4495C93.3907 23.8508 95.6025 24.4495 96.9094 24.5493C98.0153 24.6491 99.0206 24.3497 100.026 24.2499C100.026 26.4452 100.126 28.6404 100.227 30.8356C100.227 31.9332 100.73 34.2282 99.9254 35.1263C99.5233 35.6252 101.333 35.4256 101.433 35.4256C102.238 35.3259 103.143 35.0265 103.645 34.4278C104.55 33.3302 104.047 30.8356 104.047 29.5384C103.947 27.7423 103.947 25.9462 103.947 24.1501C104.852 24.0504 106.058 23.3519 105.857 22.5536ZM91.9833 22.3541C91.8827 21.1567 91.7822 19.9593 91.6817 18.7619C91.4806 16.5666 91.7822 13.4734 93.8934 12.1762C94.4966 11.777 95.5019 11.8768 96.1051 11.777C97.0099 11.5775 98.0153 11.3779 98.8196 11.9766C99.9254 12.7749 99.7244 15.469 99.7244 16.5666C99.7244 18.4625 99.9254 20.3584 100.026 22.2543C99.5233 22.3541 98.9201 22.3541 98.4174 22.3541C96.2057 22.2543 93.9939 21.9549 91.9833 22.3541Z" fill="white"/>
<path d="M31.9646 11.3779C32.4672 11.3779 32.9699 11.1783 33.372 10.879C33.4726 10.7792 33.5731 10.7792 33.5731 10.6794C34.0758 10.3801 34.4779 9.88117 34.2769 9.38225C33.7742 8.38442 33.8747 7.28681 33.8747 6.18919C33.8747 5.29115 32.9699 4.9918 32.1656 5.09158C31.4619 5.19136 30.0544 5.69028 30.0544 6.48854C30.0544 7.38659 29.9539 8.38442 30.155 9.28247C30.155 9.38225 30.0544 9.48203 30.0544 9.58182C29.9539 9.78138 30.0544 9.98095 30.155 10.1805V10.2803C30.155 10.3801 30.155 10.4799 30.155 10.5796C30.2555 10.7792 30.356 10.9788 30.5571 11.0786C31.0598 11.3779 31.5624 11.3779 31.9646 11.3779Z" fill="white"/>
</svg>
