<svg xmlns="http://www.w3.org/2000/svg">
  <symbol id="lens" viewBox="0 0 18 18">
    <path d="M17.7 16.06l-3.48-3.48a7.63 7.63 0 0 0 1.53-4.7c0-4.4-3.48-7.88-7.88-7.88A7.81 7.81 0 0 0 0 7.88c0 4.4 3.48 7.87 7.88 7.87 1.73 0 3.37-.61 4.7-1.53l3.48 3.47c.2.2.4.31.82.31.6 0 1.12-.51 1.12-1.13 0-.2-.1-.5-.3-.81zM2.24 7.88a5.67 5.67 0 0 1 5.63-5.63 5.67 5.67 0 0 1 5.62 5.63 5.67 5.67 0 0 1-5.63 5.62 5.67 5.67 0 0 1-5.62-5.63z"/>
  </symbol>
  <symbol id="cart" viewBox="0 0 21 18" preserveAspectRatio="none">
    <path d="M20.188 6.857h-3.55L13.188.381C12.985 0 12.58-.095 12.174.095s-.507.572-.304.953l3.145 5.81H5.783l3.145-5.81c.202-.381 0-.762-.305-.953-.406-.19-.811 0-1.014.286l-3.45 6.476H.812c-.406 0-.812.286-.812.762 0 .381.304.762.812.762h.202l.914 2.857c-.203.095-.305.286-.305.572 0 .38.305.666.71.666L4.058 18h12.884l1.725-5.524c.405 0 .71-.286.71-.667 0-.19-.102-.476-.304-.57l.912-2.858h.203c.406 0 .812-.286.812-.762 0-.476-.406-.762-.812-.762zm-4.565 9.62H5.073L3.854 12.38h13.087l-1.319 4.095zm1.623-5.525H3.348l-.812-2.666h15.522l-.812 2.666z"/>
  </symbol>
  <symbol id="footer-logo" viewBox="0 0 103 36">
    <g fill="currentColor">
      <path d="M20.22 22.38c-.1-2.68-.5-5.27-.5-7.95 0-2.2.4-4.38-.4-6.47 0-.2.1-.5.1-.7.2-.99-3.3-.5-3.8.5-.3.3-.5.6-.4 1 0 .1.1.2.1.3-.7 3.18-1.6 6.26-2.6 9.34-.4 1.2-.9 2.3-1.3 3.48-.6-1.09-1.2-2.18-1.6-3.38-1.4-3.38-2.6-6.86-4.3-10.14.2-1.5-3.2-1.4-3.9 0-.8 1.69-.7 3.38-.4 5.17.3 1.99.4 3.98.4 6.07 0 3.97.4 7.85.4 11.83-.4.4-.5.9-.1 1.4.2.2.4.4.6.5 1 .69 3.6.09 3.6-1.3 0-4.08-.3-8.16-.4-12.33v-1.2c.1.1.1.3.2.4.6 1.6 1.3 3.18 2.2 4.67.9 1.5 1.3 3.09 1.8 4.68-.2.2-.3.5-.2.7 0 .2.1.3.3.4.6.49 1.8.3 2.5 0 .3-.1.6-.3.8-.4.3-.2.9-.7.7-1.2 0-.1-.1-.2-.1-.3.5-1.29.7-2.58 1-3.88.3-1.39.8-2.78 1.3-4.07.1.6.1 1.2.2 1.89.2 2.58 0 5.07 0 7.55 0 .8.1 1.6.2 2.5.1.29.4 1.78.3 1.88-.8.5-.6 1.1.2 1.3.9.2 2.1-.1 2.8-.7 1.2-1.1.6-2.79.4-4.18-.5-2.39 0-4.97-.1-7.36zM28.62 23.08c-.1-2-.8-3.88-.8-5.87 0-2.29.2-4.57-.2-6.86-.1-.7-4.1.1-3.9 1 .3 2.08.2 4.17.2 6.36 0 1.99.5 3.88.7 5.86.3 2.1-.1 4.18.1 6.17.1 1 .8 2.69.1 3.58-.4.5 1.5.3 1.6.3.8-.1 1.8-.4 2.3-1 .7-.8.2-2.38.1-3.38-.3-1.99-.1-4.17-.2-6.16zM44.92 19.8c-2.1-2.79-5.9-.8-8.6-1.5-1.4-.4-1.4-2.28-1.4-3.38 0-1.39-.1-2.68-.3-4.07-.1-1.1 0-2.1.7-2.89.1-.1.9-.3.8-.3.4-.1.7-.1 1.1-.1 1.5-.1 4.6.2 4 2.49-.3 1 3.6.4 3.9-.6 1.2-4.57-7.3-3.68-9.7-3.08-2.2.6-4.6 1.79-4.8 4.38-.1 1.19.3 2.38.3 3.58.1 1.39-.2 2.78.3 4.07 1.1 2.99 5.5 1.6 7.8 1.7 3.8.3 2.7 5.46 2.7 7.85 0 1.3 1.2 3.38.2 4.48-.6.7-2 .7-2.8.8-.8.1-2.2.29-2.7-.5-1-1.4.1-3.79-.1-5.38-.1-.9-4.1-.1-3.9 1 .3 2.58-1.4 6.06 2.4 6.56 2.4.3 5.2-.2 7.5-.9 1.2-.4 2.3-.89 3.2-1.78 1-.9.7-2.3.4-3.48-.5-3.09.9-6.47-1-8.95zM62.32 19.6c-.1-3.78-.7-7.46-.7-11.24 0-1.99-4-1.3-4 .3 0 3.58.5 7.16.7 10.74v.2c-1.9 0-3.9.2-5.9.2.2-4.58-.6-9.15-.4-13.83 0-.6-3.9-.1-3.9 1-.2 4.47.6 8.85.5 13.32l-.3 6.37c0 1.1.2 2.19.3 3.28.1 1 .5 2.29.2 3.28-.2.8 3.6.3 3.9-.7.5-1.79-.2-3.97-.4-5.76-.2-1.7 0-3.48.1-5.17 2-.1 4.1-.3 6.1 0l.3 4.07c.1 1.2.2 2.29.2 3.48 0 1 .1 2.49-.2 3.48-.8 2.1 3.1 1.9 3.7.4.7-1.89.5-4.17.4-6.16-.2-2.49-.6-4.88-.6-7.26zM79.22 23.97c-.9-2.78-2.4-5.17-3.6-7.75 1-1.9 2-3.88 2.9-5.87.8-1.8 1.4-3.78 3.1-5.07.6-.4.6-.9-.3-1-.9-.1-2.1.2-2.8.7-1.4 1.3-2.4 2.68-3.1 4.37-.9 2.1-1.9 4.08-2.9 6.07-.1.1-.1.3-.2.4-.5.3-.8.8-.6 1.3a66.9 66.9 0 0 1-2.5 4.57c-.3-5.47-1-11.04-1.2-16.51 0-1.3-4-.5-3.9 1 .2 6.85 1.2 13.62 1.3 20.48v.1c-.3.3-.2.5.1.6 0 1.78-.1 3.47-.2 5.26-.5.7.5 1.1 1.1 1.1h.1c.7 0 2.6-.3 2.7-1.4.2-2.08.3-4.17.2-6.26 1.6-1.69 2.9-3.58 4.1-5.57.8 1.5 1.5 2.99 2 4.58.9 2.68 2.3 5.27 3.1 7.95.5 1.8 4.5.7 3.9-1-1-2.78-2.4-5.26-3.3-8.05zM102.72 19.4c-.2-.8-1.4-.8-2.3-.8v-1c-.1-2.68-.2-5.36-.4-7.95-.2-2.48-1.6-3.28-4-3.18-2.4.1-5.2.5-7.5 1.4-2.6.99-4.1 2.88-4.6 5.66-.5 2.98.2 6.17.4 9.15.2 3.48.1 6.96.1 10.44 0 .6 3.9 0 3.9-1v-8.25c0-.8-.1-1.59-.1-2.38 1.4-.6 3.7 0 5.1.1 1.1.1 2.2-.2 3.2-.3 0 2.29.1 4.57.2 6.86 0 1.2.5 3.48-.4 4.47-.4.5 1.5.3 1.6.3.8-.1 1.8-.4 2.3-1 .9-1.09.5-3.77.4-5.06-.1-1.9-.1-3.78-.1-5.67 1.1-.2 2.4-.9 2.2-1.8zm-14.6-.1l-.3-3.68c-.2-2.29.1-5.57 2.3-6.96.6-.4 1.7-.3 2.4-.4 1-.2 2-.4 2.8.2 1.2.8.9 3.68.9 4.87 0 2 .2 3.98.3 5.97-.6.1-1.1.1-1.7.1-2.3-.2-4.6-.6-6.7-.1zM25.22 7.66c.5-.1 1-.2 1.5-.5l.2-.2c.5-.3 1-.79.7-1.39-.5-1.09-.4-2.18-.4-3.38 0-1-1-1.19-1.8-1.19-.7.1-2.2.6-2.2 1.5 0 .99-.1 1.98.1 2.98 0 .1-.1.2-.1.4-.1.2 0 .4.1.59v.4c.1.2.2.4.4.5.6.3 1.1.3 1.5.3z"/>
    </g>
  </symbol>
  <symbol id="insta" viewBox="0 0 22 21">
    <g fill="currentColor">
      <path d="M22 12.08c0-2.37-.3-4.75-.3-7.03 0-.8-.1-1.48-.2-2.28-.1-.3-.1-.69-.2-1.09-.3-.2-.2-.59-.5-.79-.41-.2-1.22-.1-1.72-.2-.7 0-1.3-.1-1.91-.2-1.91-.1-4.03-.1-6.04-.1S7.1.3 5.39 0H3.18c-.1 0-.1.1-.2.1-.6 0-1.11.2-1.61.3-.2.1-.4.2-.7.3-.1.2-.51.1-.61.39-.2.2.2.5 0 .6v.89c.2.1 0 .59.1.79v.99c0 1.29.1 2.38.1 3.66.5 2.78.4 6.44.1 9.31.2.6.4 1.1.5 1.69.3.5.3 1.09.7 1.48.51.2 1.22.2 1.92.2.4.1.7.3 1.1.3 2.83-.2 5.54-.2 8.46-.2 2.72.2 5.84.2 8.36-.2.2-.1.1-.5.2-.79-.1-.4.2-.4.2-.8.2-2.07.2-4.45.2-6.93zM8.92 5.94c.8-.2 1.5-.3 2.41-.3.7.1 1.3.3 1.91.5.1.2-.2.5.2.7.1 0 .1 0 .2.1.4 0 .81.2 1.11.39.5.1.5.5 1.11.4-.1.2-.1.5-.1.79.3 1.19.5 2.77.3 4.26-.2.2-.2.4-.3.7-.3.29-.5.78-.8 1.08-.1.2-.3.4-.5.5-.11.2-.21.5-.51.5-.3.19-.6 0-.8-.1-.41.2-.91.29-1.22.59l-2.41-.3c-.2-.1-.5-.3-.8-.3-.2-.2-.5-.4-.81-.5-.1-.1-.3-.1-.5-.2-.2 0-.2-.19-.5-.19-.1-.4-.41-.6-.51-1.09-.2-.3-.3-.8-.5-1.19 0-1.38.1-2.67.4-3.76.3-.6.8-1.1 1.1-1.69.2 0 .4-.1.4-.3.31.1.41-.1.71-.1.2 0 .2-.29.4-.49zM7.2 3.27c-.1-.3-.1-.7-.1-1.1 0-.29.3-.29.3-.49 0-.1-.1-.1-.2-.1.1-.1.7-.1.81 0 .1.5-.4.5-.5.7 0 .2.3 0 .5.1 0 .89-.1 1.48 0 2.18h-.5c0 .2.2.2.5.2-.1.3.1.4.1.59-.2.2-.7 0-1.1.1 0-.6.3-1.39.2-2.18zm-.7-1.59c.1 0 .1 0 .2.1.2.3 0 .7-.1.9-.2-.2 0-.7-.1-1zm.2 1.79c-.1-.1-.2-.2-.2-.5.2.1.2.3.2.5zm0 1.38c-.1.1-.1 0-.1-.2.1-.1.1.1.1.2zm-.2.2c.2 0 .1.2.2.2 0 .2-.3.2-.4.1.1-.1.2-.2.2-.3zM4.18 3.86c0-.1 0-.2-.1-.2-.1-.69.1-1.38 0-1.98.3-.2.8 0 1.11-.1v1.1c-.1.1-.2.1-.4.1-.1.3.3.1.4.3 0 .88-.1 1.77.2 2.37-.6-.1-.9.1-1.4.1.1-.6 0-1.39.5-1.59 0-.1-.3 0-.3-.1zm-.5 0c-.2 0-.2-.5-.1-.6.3 0 .2.5.1.6zm-.2 1c.1-.3 0-.3.1-.7.2 0 .2.8-.1.7zm.2-2.09c-.3.1-.3-.3-.2-.4.3 0 .4.3.2.4zm0-1.09c0 .2-.1.2-.1.3-.2 0-.1-.2-.2-.2.1-.1.2-.1.3-.1zm-.2 3.67c.1 0 .1.3-.1.2.1 0 .1-.1.1-.2zm-.7-3.67c0 .3-.4.3-.4 0h.4zm-1.01.1c0 .2-.3.2-.4.4-.2-.2.1-.5.4-.4zm-.4.7c.2-.2.5-.4.7-.6 0-.1.1-.1.1-.2h.2c.1.4-.3.3-.3.5 0 .1-.1.1-.1.2 0 .3.1.6.1.99-.3 0-.3.3-.6.2 0-.4-.2-.6-.1-1.1zm.1 3.27V4.16c.2-.2.4-.4.6-.5.3.5.2 1.4.5 1.89-.4.1-.8.1-1.1.2zm18.32 11c-.1.98-.2 1.97-.4 2.76-2.93.1-6.05 0-8.96.2-.2 0-.3 0-.2-.2-.3 0-.3.2-.5.2.2-.3.4-.89.2-1.29-.81 0-.81.8-1.12 1.3-.7-.1-1.1.1-1.8.1.2-.7.7-1 .9-1.7-.4-.49-1 .1-1.2.5-.21.5-.61.8-.81 1.29H4.89c.2-.5.5-.9.8-1.39.2-.5.6-.69.7-1.38-.2-.3-.4 0-.7 0-.1.2-.3.3-.4.5-.2.39-.5.69-.7 1.08-.2.2-.3 0-.5.2-.4.3-.61.7-1.01.99-.2-.1 0-.4.2-.4 0-.2-.1-.5.1-.59.1-.4.2-.6.4-.9.1-.69.5-1.18.7-1.87-.6.1-.7.6-1 .99-.2.4-.5.79-.7 1.28-.2-.1 0-.59-.1-.79.1-.6.3-1.09.4-1.68.1-.2.2-.5.2-.8.2-.2 0-.59-.1-.79-.2 0-.4.1-.5.3-.2 0-.2.5-.3.3 0-2.58-.51-4.76-.51-7.33 0-.3-.2-.4-.2-.7 1.6 0 3.12.1 4.83.2-.1.1-.2.3-.3.4-.1.1-.2.2-.4.3-.6 1.68-1.01 3.96-.6 6.14.2.6.6.99 1 1.38.9.5 1.6 1.1 2.51 1.69 1.72.4 3.83.4 5.54 0 .2-.1.5-.2.7-.4 1.41-1.19 2.82-2.47 3.02-4.85V10.4c-.2-1.58-.7-2.87-1.7-3.57.3-.2 1.1 0 1.7.1h.7c.41 0 .91-.1 1.42 0 .1.2.1.5.2.8-.1 1.68-.2 3.27-.2 5.05.1.5.1.99.2 1.39-.2.79-.3 1.68-.5 2.57zm.4-11.1c-.6-.1-1.21-.3-1.91-.4.1-.3.8 0 1-.2.4-.2.3-.89.3-1.48 0-.3.1-.6.1-1.1-.4-.98-1.8-.39-2.91-.49-.2.7-.5 1.78-.3 2.68.2.5 1 .3 1.5.5-.1.29-.7.09-1 .09-.3-.1-.7-.1-1-.2-2.32.1-4.34 0-6.55.2.1-1.19.1-2.48-.1-3.57h3.12c-.3.4-.9.5-1.31.8-.4.2-.9.5-1.1.89.2.1.5-.2.8-.4.4-.1.5-.4.8-.5.4-.39 1.11-.59 1.71-.89.4 0 .7 0 1.01.1 1.3 0 2.52.1 3.83.1.6.1 1.5.1 2 .3l.31.9c-.1.98-.3 1.77-.3 2.67zm-5.94-3.67c.1-.1 0-.1 0 0zm0 0c-.5.2-1 .3-1.4.7.5-.2 1.1-.3 1.4-.7zm1.1.6c.1-.1 0-.1 0 0zm-1.8.89c.7-.2 1.2-.6 1.7-.9-.4 0-.6.3-1 .4-.1.2-.5.2-.7.5zm-.7-.8c-.11 0 .1.1 0 0zm-.61.6c.1-.1 0-.1 0 0zm-.1.1c.1 0 .1-.1 0 0 0-.1 0-.1 0 0zm-.1 0c.1 0 .1 0 0 0 0-.1 0 0 0 0zm-.81.6c.3-.1.6-.3.8-.6-.3.2-.6.4-.8.6zm2.32.98c.5 0 .7-.4 1.2-.5.3-.29.8-.39 1.01-.78-.6 0-.8.4-1.2.49-.31.4-.81.5-1.01.8zm-2.32-.99c-.3 0 0 .3 0 0zm-.6.4c.1 0 .2 0 0 0 .1-.1 0 0 0 0zm2.92.6c-.2.1 0 .1 0 0zm-1.21 1.78c-.2-.2-.7-.2-1-.4-.71 0-1.22.1-1.72.2-.3.2-.6.3-.9.5-.3.2-.4.39-.81.49-.2.2-.4.5-.7.6 0 .2-.2.29-.3.39-.1.1-.1.3-.2.4 0 .1 0 .3-.11.3a18 18 0 0 0 .7 4.15c.3.6 1.01.8 1.41 1.29.6.3 1.31.4 2.12.5.3-.1.6-.1.9-.1 1.21-.2 2.12-.7 2.82-1.39.1-.3.3-.5.5-.7-.3-.69.3-1.08.5-1.58 0-1.29-.2-2.47-.6-3.37-.3-.6-.9-.79-1.4-1.09-.1 0-.2 0-.2-.1-.2-.1-.71-.2-1.01-.1zm-3.42 4.35c-.1-.1-.1-.2-.2-.4.3-.1.2.2.2.4zm.1.3c0-.1.1 0 0 0 0 .2 0 .1 0 0zm.4-2.08c0-.1.1 0 0 0 .1.1 0 .1 0 0zm1.71-2.08c-.2.3 0 .6.1.8-.3 0-.6-.8-.1-.8zm.4 3.86c-.1 0 0 0 0 0 .1 0 0 .1 0 0zm.7 2.88c0-.1.1 0 .2 0 0 .1-.2.1-.2 0zm2.22-2.48c-.2-.1-.1.2-.4.2.1-.2.1-.3.2-.5.2 0 .3.1.2.3zm-1.1-3.76c.2.1.4.2.6.4.1.2.2.39.4.49.1.79.2 1.48.2 2.38-.3.1-.4.3-.7.4-.8 0-1.41-.2-1.92-.5-.2-.3-.4-.5-.5-.8V9.01c.2-.2.3-.4.5-.59.2-.1.5-.2.5-.6 0-.1-.1-.1-.1-.2.2 0 .2.2.41.2.2 0 .3-.2.6-.1z"/>
    </g>
  </symbol>
  <symbol id="fb" viewBox="0 0 15 28">
    <g fill="currentColor">
      <path d="M11.7 5.25c1 0 2 0 2.7-.3.4-.8.6-1.9.6-3.01-.2 0-.1-.3-.2-.4 0-.2-.3-.2-.3-.4-.3-.21-.5-.41-.7-.61-.7-.2-1.4-.3-2.2-.5-.8 0-1.9-.1-2.6.1-2.6 0-3.99 1.1-5.29 2.4 0 .11 0 .21-.1.21-.6 1.61-.1 3.62-.2 5.63.1.4.1 1 .2 1.41-1 .3-2.2.4-3.4.5-.3.3-.2 1.11-.2 1.71.1.6.3 1.1.4 1.61.2.2.6.4.8.5.1 0 .1.1.1.1.5.3 1.5 0 2.3.1-.1 2.02.3 3.93 0 5.74 0 .3.3.4.2.8 0 1-.1 2.01.2 2.72-.3.5-.5 1-.4 1.8.1 0 .1.21.1.31-.1.5.6.2.5.7.2.5-.4.2-.4.5v.91c.5.3 1.5.2 2.3.2.9-.4 2.2-.5 2.8-1.2.5.2.9 0 1.2-.2 0-.3.3-.3.2-.7 0-.31-.2-.51-.1-.91v-2.92c-.2-2.31 0-4.93-.3-7.24.9-.1 1.9-.1 2.6-.4.4-.5.4-1.21.5-1.91.2-.2.2-.6.2-1.01.2-.2.1-.7.1-1.1-.1-.6-.2-1.31-.8-1.41-.9-.2-2 .6-3 .3 0-1.1-.3-2.32 0-3.42.8-.2 1.5-.4 2.2-.6zm-3.8 4.83c.1.3.3.5.4.7.1 0 .2 0 .2.1 1.2.1 2.2-.1 3.1-.3 0 1.01-.3 1.71-.5 2.52-.7 0-1.5.3-2 .2-.3.2-.4.5-.6.7 0 .4.1.5 0 .8-.2.11-.1.61-.2.81v1.51c.1.3-.1.3-.1.5v3.53c-.1.3.1.3.1.5v3.02c.1.3-.1.8.1.9-.1.4-.4 0-.8.1-.5.1-.9.4-1.5.4.1-.4.3-.6.3-1.1 0-.4-.39-.3-.49-.5.2-.61.6-1.11.7-1.82.2-.5.7-1.3.3-1.8-.5-.1-.5.3-.8.4 0 .1 0 .2-.1.2 0 .1 0 .2-.1.2 0 .1-.2.1 0 0 0-.1 0-.2.1-.2 0-.1 0-.2.1-.2v-.3c.4-.61.7-1.21.8-2.02.2-.3.3-.7.4-1 .2-.3.3-.9.1-1.21-.5 0-.8.3-.9.7-.3-.2.2-.4.1-.7.1-.2.2-.6.3-.8.2-.4.6-1.31 0-1.61-.4 0-.6.2-.7.5-.2.2-.4.4-.5.7-.4-.1-.1-.7-.2-1.1-.1-.5.1-.9 0-1.21-.6-.8-2-.1-3.2-.3-.1-.3-.2-1-.1-1.2 1-.1 2.5.2 3.2-.21 0-.1 0-.2.1-.2.1-.7-.3-1-.5-1.4.2-.81 0-2.02.1-3.03.2-.1.3-.4.5-.6.1-1 .7-1.5.7-2.51-.3 0-.6-.1-.6.2-.3-.1-.4.5-.5.2-.1-.5.2-.6.3-1 .6-.4 1.2-.81 1.9-1.21 1.7-.2 4.6-.4 6.1.2.1.6-.3.9-.2 1.5h-1.5c-1.1.2-2 .71-3 1.01-.2.1-.3.3-.5.4 0 .4-.2.6-.3 1-.3 1.42-.1 2.62-.1 4.03z"/>
    </g>
  </symbol>
  <symbol id="twitter" viewBox="0 0 23 20">
    <g fill="currentColor">
      <path d="M22.957 4.242c-.194-.404-.874-.303-1.36-.404h-1.07c.098-.404.292-.606.487-1.01.097-.404.291-.707.194-1.313L21.5.91c.097-.1.194-.505.097-.707C21.5 0 21.305 0 21.014 0c-.097 0-.195.101-.195.101-.388.404-.777 1.01-1.263 1.414h-.097c-.097 0 0 0-.097.101s-.292.202-.389.202c-.291.202-.486.404-.874.505-.486-.202-1.166-.303-1.846-.404-1.167.101-2.235.202-2.916.707-.874.303-1.457 1.01-2.04 1.616 0 .303-.292.404-.389.707 0 0 0 .102-.097.102 0 .202-.097.303-.097.505 0 .1.194.404 0 .505-.777-.101-1.458-.606-2.04-1.01-.68-.405-1.458-.607-2.041-1.112-.68-.303-1.263-.808-1.75-1.313-.194-.303-.485-.505-.68-.909-.388-.202-.194-.909-.68-.909-.291 0-.291.202-.388.404-.097.202-.389.202-.389.505 0 0 0 .101-.097.101-.195 1.111-.486 2.02-.486 3.334.097.404.292.707.583 1.01-.389.1-.68.202-.875.505-.097 1.11.39 1.616.68 2.323.098.404.39.707.584 1.01 0 .202.194.303.291.404 0 .101.097.101.097.202s.292.202.098.202c-.39.101-.972.101-1.264.404a2.154 2.154 0 0 0 0 1.111c0 .202.292.303.292.505.486.404 1.069.707 1.555 1.111.583.202 1.166.303 1.846.404-.097.303-.292.607-.583.707-.778.404-1.75.506-2.624.708-.583 0-.972.202-1.555.202-.291.1-.874.1-1.068.202-.098.1-.098.1-.195.202-.097.404.097.707.389.909 0 .303.194.303.389.404.097.202.291.303.388.404.486.505 1.263.808 1.847 1.11.777.203 1.554.405 2.429.506.874.101 1.846.101 2.72.202h.972c.486.101 1.166.101 1.846.101.097-.101.292-.101.486-.101.486-.303 1.166-.404 1.555-.707.583-.202.972-.606 1.555-.91.874-.807 1.846-1.312 2.429-2.423.194-.202.389-.405.389-.707.291-.202.388-.505.582-.708.39-.404.68-.909.972-1.414.292-.505.583-1.11.875-1.616 0-.404.291-.505.291-.909.195-.202.195-.707.389-.909 0-.303 0-.404.097-.606 0-1.313 0-2.424-.291-3.434.583-.202 1.166-.303 1.554-.607.778.304 1.263-.1 1.07-.707zm-3.304 4.04c-.194.91-.583 1.415-.971 2.021.097.404-.098.505-.098.91-.194.302-.291.706-.388 1.01-.195.302-.292.605-.486.908-.389.505-.777 1.111-1.166 1.617-.389.606-.875 1.01-1.263 1.515-.389.505-.875.909-1.36 1.313-.486.202-.875.404-1.264.707-.194.1-.486.202-.68.303-.194.1-.486.1-.68.303-1.069.1-2.235.202-3.498.1-.972-.1-2.04-.201-2.915-.403s-1.458-.707-2.235-1.01c.194-.202.583-.202.972-.202 0-.202.388 0 .388-.101.292.1.292-.101.486-.101.583-.202 1.166-.303 1.652-.606.291-.101.389-.404.68-.606 0-.202.097-.303.194-.404 0-.303.195-.404.098-.808.097-.202.291-.304.291-.708-.097-.1-.097-.303-.291-.404 0-.202-.39-.1-.39-.202-.29 0-.388 0-.582-.1-.194 0-.486.1-.486-.102-.777 0-1.263-.404-1.846-.707.389-.303.972-.404 1.263-.707.486-.1 1.069-.1 1.069-.707 0-.707-.777-.707-1.263-.808-.778-.707-1.166-1.717-1.75-2.525.195-.202.584-.202.68-.404.487.1.487-.303.681-.505 0-.505-.291-.606-.583-.808-.291-.202-.486-.505-.68-.707 0-.809 0-1.718.097-2.425.097 0 .097 0 .097.101.195.404.583.808.778 1.212.485.404.874.91 1.554 1.112.486.404 1.07.606 1.555 1.01.583.303 1.166.606 1.652.909.68.202 1.069.707 1.943.606l.583-.303c.292-.505-.097-1.111.097-1.616.292-.707.778-1.01 1.264-1.516.291-.202.583-.303.777-.505.291-.1.68-.202.972-.404.388 0 .68-.1.971-.1h1.264c.194.1.485.1.68.1.194.101.388.303.68.404.777.707 1.263 1.718 1.36 3.03 0 .304.097.708.097 1.314zm.292-5.656c-.097.303-.194.707-.583.808 0-.1-.097-.1-.097-.202 0-.202.194-.202.291-.303.097-.1.195-.303.389-.303 0-.1.097 0 0 0zM14.6 5.656c.194.102.291.304.485.405.098.202.292.303.583.404 0-.202.292 0 .39-.202.194 0 .194-.202.29-.303 0-.505-.096-1.01-.388-1.314-.68-.505-1.652 0-1.36 1.01z"/>
    </g>
  </symbol>
  <symbol id="academy-logo" viewBox="0 0 27 34">
    <g fill="currentColor">
      <path d="M13.65 0h-.1L0 1.4v24.62L13.55 34 27 26.02V1.4L13.65 0zM25.1 12.06L13.55 5.28v-.1h-.1l-.1-.1v.1L1.9 12.06V3.1l11.54-1.2 11.64 1.2v8.97zM13.45 6.78l11.54 6.68-4.51 2.6-7.13-4.2v1.4l5.92 3.5-.9.49-5.02-3v1.4l3.81 2.3-.8.5-3.01-1.8v1.4l1.9 1.1-1.8 1.1-11.44-6.69 11.44-6.78zM1.91 15.06l11.44 6.78v1l-7.93-4.7v1.4l8.03 4.79v1.1l-8.03-4.7v1.4l8.03 4.8 8.13-4.9v-5.18l3.41-2v9.98L13.45 31.7 1.91 24.93v-9.87z"/>
    </g>
  </symbol>
  <symbol id="phone" viewBox="0 0 25 24">
    <path d="M17.44 24h-1.11c-4.939-.593-8.568-2.864-11.189-5.728C2.521 15.408.403 11.753 0 6.716V5.333c.1-.888.504-1.481 1.109-2.074.605-.69 1.613-1.481 2.52-1.58.706 0 1.815.494 2.218 1.087.403.493.605 1.58.806 2.37.202.889.605 1.975.504 2.765-.201 1.186-1.814 1.68-2.217 2.568 1.612 3.655 4.133 6.42 7.56 8.198.806-.494 1.613-1.877 2.823-1.877.403 0 1.008.198 1.41.297.505.098.908.296 1.311.493.706.297 2.017.593 2.42 1.186.403.592.705 1.58.605 2.172-.303 1.284-2.42 2.667-3.63 3.062zM12.6 1.481c5.948 0 10.888 4.741 10.888 10.667H25C25 5.432 19.456 0 12.6 0v1.481z"/>
    <path d="M12.6 9.185v1.58c.807 0 1.412.593 1.412 1.383h1.613c0-1.58-1.31-2.963-3.024-2.963zM12.6 6.124c3.327 0 6.15 2.666 6.15 6.024h1.613c0-4.148-3.427-7.506-7.661-7.506v1.482H12.6z"/>
  </symbol>
  <symbol id="email" viewBox="0 0 32 21">
    <path d="M28 0H4C1.8 0 0 1.8 0 4v13c0 2.2 1.8 4 4 4h24c2.2 0 4-1.8 4-4V4c0-2.2-1.8-4-4-4zM2 5.3l7 5.3-7 5.3V5.3zM30 17a2 2 0 0 1-2 2H4a2 2 0 0 1-2-2l7.8-5.9 4.4 3.3a3 3 0 0 0 3.6 0l4.4-3.3L30 17zm0-1.2l-7-5.3 7-5.3v10.6zm-12.8-2.2c-.4.3-.8.4-1.2.4-.4 0-.9-.1-1.2-.4l-4.1-3.1-.8-.6L2 4c0-1.1.9-2 2-2h24a2 2 0 0 1 2 2l-12.8 9.6z"/>
  </symbol>
</svg>
