<svg width="43" height="64" fill="none" xmlns="http://www.w3.org/2000/svg"><path d="M16.503 38.656c-.306.994-.204 2.186 0 3.577.51 2.584 1.733 5.962 2.447 9.638h5.202c.714-3.577 1.938-6.955 2.55-9.638.305-1.39.305-2.682 0-3.577-.307-.894-.918-1.59-2.04-2.285h-6.12c-1.224.696-1.836 1.391-2.04 2.285zm12.034 19.872H14.463c-1.326 0-2.346.994-2.346 2.186V62.9h18.766v-2.186c0-1.192-1.02-2.186-2.346-2.186zm7.242-55.342H23.846C23.846 1.994 22.826 1 21.5 1s-2.346.994-2.346 2.186H7.221L1 28.522c.816-.496 1.632-.993 2.652-.993 1.428 0 2.244.795 2.957 1.39.714.597 1.224.796 1.428.796.306 0 .816-.298 1.53-.795.714-.497 1.632-1.391 2.958-1.391 1.326 0 2.244.795 2.958 1.39.713.498 1.223.796 1.53.796.101 0 .305-.1.611-.199.204-.1.51-.397.918-.596.51-.398 1.122-.994 2.04-1.192.306-.1.612-.1.918-.1 1.326 0 2.244.795 2.958 1.391.714.497 1.224.795 1.53.795.306 0 .816-.298 1.427-.795.714-.596 1.632-1.39 2.958-1.39 1.428 0 2.244.794 2.958 1.39.306.298.612.497.918.596.204.1.408.2.612.2.306 0 .816-.299 1.428-.895.713-.596 1.631-1.391 2.957-1.391 1.02 0 1.836.497 2.652.993l-6.12-25.336zM24.968 54.057H17.93c-.714 0-1.122.497-1.122 1.093s.51 1.093 1.122 1.093h7.038c.714 0 1.122-.497 1.122-1.093.102-.596-.408-1.093-1.122-1.093z" fill="#149080"/><path d="M21.5 29.714c-.102 0-.306.1-.612.199-.204.1-.408.298-.612.397v3.677h2.346V30.41c-.51-.398-.918-.696-1.122-.696z" fill="#149080"/></svg>